<?xml version="1.0" encoding="utf-8"?>
<!-- Generator: Adobe Illustrator 16.0.3, SVG Export Plug-In . SVG Version: 6.00 Build 0)  -->
<!DOCTYPE svg PUBLIC "-//W3C//DTD SVG 1.0//EN" "http://www.w3.org/TR/2001/REC-SVG-20010904/DTD/svg10.dtd">
<svg version="1.0" id="Vrstva_1" xmlns="http://www.w3.org/2000/svg" xmlns:xlink="http://www.w3.org/1999/xlink" x="0px" y="0px"
	 width="1065.84px" height="492.583px" viewBox="0 0 1065.84 492.583" enable-background="new 0 0 1065.84 492.583"
	 xml:space="preserve">
<g>
	<g>
		<path fill="#4570B4" d="M655.31,127.081c0,68.96-55.899,124.866-124.863,124.866c-68.96,0-124.864-55.906-124.864-124.866
			S461.486,2.219,530.446,2.219C599.41,2.219,655.31,58.121,655.31,127.081z"/>
		<g>
			<path fill="none" d="M492.303,122.15c-1.511,5.51-6.52,9.332-12.233,9.332h-8.438c0.096,0.188,0.192,0.375,0.297,0.559
				c0.002,0.003,0.004,0.009,0.006,0.013c0.022,0.039,0.049,0.075,0.071,0.114c0.256,0.437,0.532,0.857,0.831,1.263
				c0.076,0.104,0.153,0.209,0.233,0.312c0.149,0.194,0.301,0.385,0.461,0.569c0.096,0.112,0.196,0.217,0.296,0.325
				c0.258,0.282,0.522,0.551,0.799,0.811c0.135,0.125,0.27,0.25,0.405,0.37c0.155,0.134,0.313,0.267,0.473,0.394
				c0.219,0.175,0.442,0.342,0.671,0.502c0.176,0.125,0.354,0.243,0.538,0.36c0.218,0.14,0.438,0.274,0.665,0.403
				c0.14,0.079,0.278,0.157,0.42,0.232c0.334,0.175,0.674,0.343,1.023,0.493c0.082,0.036,0.164,0.064,0.247,0.097
				c0.31,0.125,0.625,0.241,0.946,0.346c0.12,0.039,0.241,0.079,0.362,0.114c0.395,0.118,0.794,0.226,1.201,0.31
				c0.032,0.006,0.067,0.01,0.1,0.017c0.39,0.077,0.786,0.134,1.186,0.181c0.112,0.011,0.225,0.024,0.338,0.034
				c0.434,0.039,0.872,0.067,1.317,0.067c0.829,0,1.638-0.086,2.43-0.22c0.162-0.028,0.331-0.041,0.491-0.075
				c6.606-1.352,11.575-7.197,11.575-14.201c0-0.138-0.017-0.271-0.021-0.407c-0.01-0.364-0.02-0.728-0.057-1.087
				c-0.015-0.157-0.049-0.308-0.07-0.463c-0.045-0.334-0.088-0.668-0.155-0.995c-0.024-0.122-0.063-0.239-0.092-0.361
				c-0.084-0.355-0.168-0.708-0.276-1.051c-0.026-0.081-0.06-0.155-0.086-0.235c-0.127-0.379-0.264-0.755-0.418-1.119
				c-0.021-0.045-0.045-0.087-0.065-0.132c-0.174-0.394-0.36-0.781-0.57-1.156c-0.009-0.019-0.021-0.034-0.029-0.052
				c-0.225-0.398-0.464-0.787-0.724-1.162c0,0-0.001-0.001-0.001-0.003c-0.27-0.389-0.557-0.762-0.859-1.123h-0.002
				c-0.303-0.359-0.622-0.701-0.958-1.027c-0.002-0.002-0.004-0.006-0.006-0.007l0,0c-0.058-0.056-0.121-0.107-0.18-0.161
				l-0.34,1.242L492.303,122.15z"/>
			<path fill="none" d="M460.209,111.389c0.917-6.946-3.97-13.319-10.916-14.236c-0.794-0.106-1.595-0.134-2.393-0.088
				c5.643-7.636,13.475-13.372,22.455-16.45l21.596,16.583l0.483,0.372l20.343-72.161c0.498-1.769,1.883-3.153,3.651-3.652
				c2.812-0.792,5.73,0.844,6.521,3.652l44.273,157.05c1.415,5.026,5.762,7.64,9.705,5.832c2.127-0.977,3.803-3.118,4.566-5.832
				l13.979-49.576c1.539-5.467,6.528-9.244,12.207-9.244h42.885C647.489,59.337,594.746,7.835,529.939,7.835
				c-64.808,0-117.553,51.501-119.626,115.803h48.279l0,0l0.032-0.243L460.209,111.389z"/>
			<path fill="none" d="M474.482,123.639c5.68,0,10.667-3.775,12.208-9.242l0.655-2.325l0.374-1.321
				c-0.185-0.041-0.368-0.09-0.555-0.123v-0.002c-0.014-0.002-0.028-0.002-0.041-0.006c-0.413-0.075-0.829-0.138-1.254-0.177
				c-0.444-0.045-0.895-0.069-1.352-0.069c-0.486,0-0.966,0.026-1.438,0.073c-0.159,0.017-0.313,0.046-0.469,0.067
				c-0.313,0.041-0.624,0.083-0.931,0.142c-0.183,0.037-0.36,0.088-0.54,0.131c-0.272,0.065-0.545,0.127-0.811,0.207
				c-0.188,0.058-0.371,0.127-0.557,0.191c-0.248,0.086-0.498,0.171-0.741,0.271c-0.185,0.077-0.366,0.163-0.549,0.247
				c-0.231,0.106-0.464,0.215-0.688,0.333c-0.182,0.095-0.356,0.198-0.532,0.299c-0.215,0.125-0.43,0.252-0.639,0.389
				c-0.172,0.112-0.34,0.229-0.508,0.349c-0.2,0.144-0.396,0.288-0.589,0.441c-0.162,0.129-0.321,0.261-0.477,0.396
				c-0.185,0.161-0.366,0.323-0.541,0.491c-0.149,0.144-0.297,0.29-0.441,0.439c-0.168,0.175-0.33,0.356-0.491,0.54
				c-0.136,0.157-0.271,0.314-0.399,0.477c-0.151,0.19-0.295,0.388-0.438,0.586c-0.121,0.168-0.242,0.336-0.356,0.51
				c-0.135,0.208-0.26,0.418-0.385,0.633c-0.103,0.177-0.209,0.353-0.305,0.536c-0.117,0.222-0.224,0.452-0.328,0.682
				c-0.086,0.185-0.176,0.366-0.253,0.555c-0.101,0.243-0.185,0.493-0.272,0.744c-0.065,0.183-0.135,0.364-0.192,0.551
				c-0.084,0.278-0.149,0.564-0.219,0.85c-0.039,0.166-0.089,0.331-0.123,0.499c-0.082,0.407-0.142,0.824-0.188,1.244
				c-0.006,0.05-0.019,0.101-0.022,0.151l-0.002,0.001c-0.007,0.081-0.006,0.163-0.011,0.243h1.804H474.482z"/>
			<path fill="none" d="M600.18,140.813l-21.725,79.272c-0.492,1.802-1.9,3.208-3.699,3.702c-2.814,0.771-5.721-0.887-6.492-3.702
				L525.127,62.671c-1.598-5.824-6.59-8.893-11.153-6.857c-2.516,1.121-4.494,3.646-5.374,6.857l-10.884,39.719l0.184,0.142
				l10.452,8.024c5.557,4.268,13.52,3.222,17.787-2.334c0.485-0.635,0.912-1.315,1.272-2.029c3.789,8.706,4.841,18.357,3.017,27.674
				l-45.43,18.798c-6.472,2.68-9.548,10.097-6.87,16.571c0.307,0.74,0.683,1.449,1.121,2.118
				c-9.433-1.072-18.317-4.983-25.474-11.222l3.706-28.079l0.075-0.572l0,0h-47.243c2.073,64.302,54.818,115.803,119.626,115.803
				c64.807,0,117.55-51.501,119.625-115.803h-37.152C606.698,131.481,601.688,135.303,600.18,140.813z"/>
			<path fill="#FFFFFF" d="M529.939,0c-70.336,0-127.561,57.223-127.561,127.561c0,70.336,57.225,127.56,127.561,127.56
				c70.335,0,127.558-57.223,127.558-127.56C657.497,57.223,600.274,0,529.939,0z M529.939,247.285
				c-64.808,0-117.553-51.501-119.626-115.803h47.243l1.036-7.843h-48.279C412.387,59.337,465.132,7.835,529.939,7.835
				c64.807,0,117.55,51.501,119.625,115.803H606.68c-5.679,0-10.668,3.776-12.207,9.244l-13.979,49.576
				c-0.764,2.714-2.439,4.854-4.566,5.832c-3.943,1.808-8.29-0.805-9.705-5.832l-44.273-157.05c-0.79-2.808-3.709-4.444-6.521-3.652
				c-1.769,0.499-3.153,1.883-3.651,3.652l-20.343,72.161l-0.657,2.335l-3.058,10.846l-0.374,1.321l-0.655,2.325
				c-1.541,5.467-6.528,9.242-12.208,9.242h-2.595h-1.804c-0.036,0.407-0.063,0.818-0.063,1.232c0,0.443,0.027,0.88,0.067,1.312
				c0.009,0.112,0.021,0.224,0.033,0.334c0.047,0.411,0.104,0.818,0.185,1.216c0.021,0.103,0.051,0.202,0.073,0.302
				c0.065,0.292,0.138,0.577,0.221,0.861c0.052,0.175,0.104,0.351,0.162,0.525c0.073,0.222,0.155,0.439,0.239,0.655
				c0.121,0.314,0.252,0.619,0.392,0.921c0.063,0.129,0.122,0.258,0.188,0.385c0.017,0.034,0.035,0.065,0.052,0.099h8.438
				c5.714,0,10.723-3.821,12.233-9.332l1.803-6.581l0.34-1.242l2.627-9.59l0.644-2.348L508.6,62.671
				c0.88-3.211,2.858-5.736,5.374-6.857c4.563-2.036,9.556,1.033,11.153,6.857l43.137,157.415c0.771,2.814,3.678,4.473,6.492,3.702
				c1.799-0.493,3.207-1.899,3.699-3.702l21.725-79.272c1.509-5.51,6.519-9.332,12.232-9.332h37.152
				C647.489,195.783,594.746,247.285,529.939,247.285z"/>
			<path fill="#B3B3B3" d="M527.411,106.193c-0.36,0.714-0.787,1.394-1.272,2.029c-4.268,5.557-12.23,6.603-17.787,2.334
				l-10.452-8.024l-0.184-0.142l-0.644,2.348l-2.627,9.59c0.059,0.054,0.122,0.104,0.18,0.161l0,0
				c0.002,0.001,0.004,0.005,0.006,0.007c0.336,0.327,0.655,0.668,0.958,1.027h0.002c0.303,0.36,0.59,0.734,0.859,1.123
				c0,0.002,0.001,0.003,0.001,0.003c0.26,0.375,0.499,0.764,0.724,1.162c0.009,0.019,0.021,0.034,0.029,0.052
				c0.21,0.375,0.396,0.762,0.57,1.156c0.021,0.045,0.045,0.087,0.065,0.132c0.154,0.364,0.291,0.74,0.418,1.119
				c0.026,0.08,0.06,0.155,0.086,0.235c0.108,0.343,0.192,0.696,0.276,1.051c0.028,0.122,0.067,0.239,0.092,0.361
				c0.067,0.327,0.11,0.661,0.155,0.995c0.021,0.155,0.056,0.307,0.07,0.463c0.037,0.359,0.047,0.723,0.057,1.087
				c0.004,0.137,0.021,0.269,0.021,0.407c0,7.004-4.969,12.849-11.575,14.201c-0.16,0.034-0.329,0.047-0.491,0.075
				c-0.792,0.134-1.601,0.22-2.43,0.22c-0.445,0-0.884-0.028-1.317-0.067c-0.113-0.009-0.226-0.022-0.338-0.034
				c-0.399-0.047-0.796-0.104-1.186-0.181c-0.032-0.007-0.067-0.011-0.1-0.017c-0.407-0.084-0.807-0.192-1.201-0.31
				c-0.121-0.035-0.242-0.075-0.362-0.114c-0.321-0.104-0.637-0.22-0.946-0.346c-0.083-0.033-0.165-0.062-0.247-0.097
				c-0.35-0.149-0.689-0.317-1.023-0.493c-0.142-0.075-0.28-0.153-0.42-0.232c-0.227-0.129-0.447-0.263-0.665-0.403
				c-0.184-0.118-0.362-0.235-0.538-0.36c-0.229-0.161-0.452-0.327-0.671-0.502c-0.16-0.127-0.317-0.26-0.473-0.394
				c-0.136-0.12-0.271-0.245-0.405-0.37c-0.276-0.26-0.541-0.528-0.799-0.811c-0.1-0.108-0.2-0.213-0.296-0.325
				c-0.16-0.185-0.312-0.375-0.461-0.569c-0.08-0.103-0.157-0.208-0.233-0.312c-0.299-0.405-0.575-0.826-0.831-1.263
				c-0.022-0.039-0.049-0.075-0.071-0.114c-0.002-0.004-0.004-0.01-0.006-0.013c-0.104-0.183-0.201-0.37-0.297-0.559
				c-0.017-0.034-0.035-0.065-0.052-0.099c-0.065-0.127-0.125-0.256-0.188-0.385c-0.14-0.302-0.271-0.607-0.392-0.921
				c-0.084-0.216-0.166-0.433-0.239-0.655c-0.058-0.174-0.11-0.35-0.162-0.525c-0.083-0.284-0.155-0.57-0.221-0.861
				c-0.022-0.101-0.053-0.2-0.073-0.302c-0.08-0.398-0.138-0.805-0.185-1.216c-0.013-0.11-0.024-0.222-0.033-0.334
				c-0.04-0.432-0.067-0.869-0.067-1.312c0-0.415,0.027-0.825,0.063-1.232c0.005-0.081,0.004-0.163,0.011-0.243l0.002-0.001
				c0.004-0.051,0.017-0.101,0.022-0.151c0.047-0.42,0.106-0.837,0.188-1.244c0.034-0.168,0.084-0.333,0.123-0.499
				c0.069-0.286,0.135-0.572,0.219-0.85c0.058-0.187,0.127-0.368,0.192-0.551c0.088-0.25,0.172-0.5,0.272-0.744
				c0.077-0.188,0.167-0.37,0.253-0.555c0.104-0.229,0.211-0.459,0.328-0.682c0.096-0.183,0.202-0.359,0.305-0.536
				c0.125-0.215,0.25-0.426,0.385-0.633c0.114-0.173,0.235-0.342,0.356-0.51c0.143-0.198,0.286-0.396,0.438-0.586
				c0.129-0.163,0.264-0.319,0.399-0.477c0.161-0.183,0.323-0.364,0.491-0.54c0.145-0.149,0.292-0.295,0.441-0.439
				c0.175-0.168,0.356-0.331,0.541-0.491c0.155-0.135,0.314-0.267,0.477-0.396c0.192-0.153,0.389-0.297,0.589-0.441
				c0.168-0.12,0.336-0.237,0.508-0.349c0.209-0.136,0.424-0.264,0.639-0.389c0.176-0.101,0.351-0.204,0.532-0.299
				c0.224-0.118,0.456-0.226,0.688-0.333c0.183-0.084,0.364-0.17,0.549-0.247c0.243-0.099,0.493-0.185,0.741-0.271
				c0.186-0.064,0.368-0.133,0.557-0.191c0.266-0.08,0.538-0.142,0.811-0.207c0.18-0.043,0.357-0.094,0.54-0.131
				c0.307-0.06,0.618-0.101,0.931-0.142c0.156-0.021,0.31-0.05,0.469-0.067c0.473-0.047,0.952-0.073,1.438-0.073
				c0.457,0,0.907,0.024,1.352,0.069c0.425,0.039,0.841,0.103,1.254,0.177c0.013,0.004,0.027,0.004,0.041,0.006v0.002
				c0.187,0.033,0.37,0.082,0.555,0.123l3.058-10.846l0.657-2.335l-0.483-0.372l-21.596-16.583
				c-8.98,3.078-16.813,8.814-22.455,16.45c0.798-0.046,1.599-0.019,2.393,0.088c6.946,0.917,11.833,7.29,10.916,14.236
				l-1.584,12.006l-0.032,0.243l-1.036,7.843l-0.075,0.572l-3.706,28.079c7.156,6.239,16.041,10.15,25.474,11.222
				c-0.438-0.669-0.814-1.378-1.121-2.118c-2.678-6.474,0.398-13.891,6.87-16.571l45.43-18.798
				C532.252,124.55,531.2,114.899,527.411,106.193z"/>
		</g>
	</g>
	<g>
		<path fill="#585857" d="M112.623,347.832c2,1.15,5,2.15,8.15,2.15c3.949,0,6.15-1.85,6.15-4.6c0-2.551-1.701-4.051-6-5.602
			c-5.551-2-9.102-4.949-9.102-9.801c0-5.5,4.6-9.699,11.9-9.699c3.65,0,6.352,0.799,8.102,1.699l-1.5,4.951
			c-1.201-0.65-3.551-1.602-6.701-1.602c-3.9,0-5.6,2.102-5.6,4.051c0,2.6,1.949,3.801,6.449,5.551c5.852,2.199,8.701,5.15,8.701,10
			c0,5.4-4.1,10.102-12.801,10.102c-3.551,0-7.25-1-9.102-2.102L112.623,347.832z"/>
		<path fill="#585857" d="M145.174,325.98h-9.602v-5.15h25.451v5.15h-9.699v28.553h-6.15V325.98z"/>
		<path fill="#585857" d="M164.973,321.281c2.301-0.4,5.75-0.701,9.301-0.701c4.85,0,8.15,0.801,10.4,2.701
			c1.85,1.549,2.9,3.9,2.9,6.75c0,4.35-2.951,7.301-6.102,8.451v0.148c2.4,0.9,3.852,3.25,4.701,6.502
			c1.051,4.199,1.949,8.1,2.65,9.4h-6.35c-0.502-1-1.301-3.75-2.252-7.951c-0.949-4.4-2.549-5.801-6.049-5.9h-3.102v13.852h-6.1
			V321.281z M173.023,318.929l-5.102-5.9h4.551l2.85,3.25h0.102l2.799-3.25h4.502l-5.051,5.9H173.023z M171.072,336.181h3.65
			c4.15,0,6.75-2.201,6.75-5.551c0-3.699-2.6-5.4-6.6-5.4c-1.949,0-3.199,0.15-3.801,0.301V336.181z"/>
		<path fill="#585857" d="M212.273,339.582h-12.701v9.9h14.201v5.051h-20.352V320.83h19.602v5.051h-13.451v8.701h12.701V339.582z"/>
		<path fill="#585857" d="M219.172,321.281c2.699-0.451,6.15-0.701,9.801-0.701c6.301,0,10.65,1.301,13.75,3.9
			c3.25,2.65,5.25,6.65,5.25,12.4c0,6-2.049,10.502-5.25,13.4c-3.35,3.051-8.699,4.602-15.25,4.602c-3.6,0-6.301-0.201-8.301-0.451
			V321.281z M225.322,349.832c0.85,0.15,2.15,0.15,3.4,0.15c8,0.049,12.75-4.35,12.75-12.9c0.051-7.451-4.25-11.701-11.951-11.701
			c-1.949,0-3.35,0.15-4.199,0.35V349.832z"/>
		<path fill="#585857" d="M253.322,354.533V320.83h7l8.701,14.451c2.25,3.75,4.199,7.65,5.75,11.301h0.1
			c-0.4-4.5-0.549-8.852-0.549-14V320.83h5.699v33.703h-6.35l-8.801-14.801c-2.15-3.701-4.4-7.852-6.051-11.652l-0.15,0.051
			c0.25,4.35,0.301,8.801,0.301,14.352v12.051H253.322z"/>
		<path fill="#585857" d="M298.172,313.029l-6.25,6.002h-4.949l4.4-6.002H298.172z M293.271,320.83v33.703h-6.15V320.83H293.271z"/>
		<path fill="#585857" d="M310.67,321.281c2.201-0.4,5.252-0.701,9.402-0.701c4.5,0,7.799,0.951,9.949,2.75
			c2,1.65,3.301,4.301,3.301,7.451c0,3.199-1,5.85-2.9,7.65c-2.449,2.449-6.301,3.6-10.65,3.6c-1.15,0-2.201-0.049-3-0.199v12.701
			h-6.102V321.281z M316.771,336.98c0.75,0.201,1.75,0.25,3,0.25c4.6,0,7.4-2.25,7.4-6.199c0-3.75-2.6-5.75-6.85-5.75
			c-1.701,0-2.9,0.15-3.551,0.299V336.98z"/>
		<path fill="#585857" d="M338.619,321.281c2.301-0.4,5.752-0.701,9.301-0.701c4.852,0,8.15,0.801,10.4,2.701
			c1.852,1.549,2.9,3.9,2.9,6.75c0,4.35-2.949,7.301-6.1,8.451v0.148c2.4,0.9,3.85,3.25,4.701,6.502
			c1.049,4.199,1.949,8.1,2.648,9.4h-6.35c-0.5-1-1.301-3.75-2.25-7.951c-0.949-4.4-2.551-5.801-6.051-5.9h-3.1v13.852h-6.102
			V321.281z M344.721,336.181h3.65c4.15,0,6.75-2.201,6.75-5.551c0-3.699-2.6-5.4-6.6-5.4c-1.951,0-3.201,0.15-3.801,0.301V336.181z
			"/>
		<path fill="#585857" d="M372.969,320.83v19.652c0,6.6,2.75,9.65,6.9,9.65c4.451,0,7.102-3.051,7.102-9.65V320.83h6.15v19.252
			c0,10.4-5.352,15-13.451,15c-7.801,0-12.852-4.35-12.852-14.951V320.83H372.969z M385.371,315.279c0,2.65-2.102,4.65-5.352,4.65
			c-3.4,0-5.449-2.049-5.449-4.6c0-2.6,2-4.801,5.449-4.801C383.471,310.529,385.371,312.63,385.371,315.279z M377.67,315.33
			c0,1.199,0.85,2.4,2.25,2.4c1.449,0,2.35-1.1,2.35-2.451c0-1.35-0.9-2.5-2.35-2.5S377.67,313.98,377.67,315.33z"/>
		<path fill="#585857" d="M428.619,340.781c-0.199-4.35-0.449-9.6-0.4-14.15h-0.148c-1.102,4.1-2.5,8.65-4,12.9l-4.9,14.602h-4.752
			l-4.5-14.4c-1.299-4.301-2.5-8.902-3.4-13.102h-0.1c-0.15,4.4-0.35,9.75-0.6,14.352l-0.75,13.551h-5.75l2.25-33.703h8.1
			l4.4,13.551c1.201,3.951,2.25,7.951,3.1,11.701h0.15c0.9-3.65,2.051-7.801,3.352-11.75l4.65-13.502h8l1.949,33.703h-6
			L428.619,340.781z"/>
		<path fill="#585857" d="M449.168,354.533v-14.051l-10.65-19.652h7l4.051,8.65c1.15,2.5,2,4.4,2.9,6.701h0.1
			c0.85-2.15,1.801-4.25,2.949-6.701l4.051-8.65h6.951l-11.201,19.502v14.201H449.168z"/>
		<path fill="#585857" d="M469.02,347.832c2,1.15,5,2.15,8.15,2.15c3.949,0,6.15-1.85,6.15-4.6c0-2.551-1.701-4.051-6-5.602
			c-5.551-2-9.102-4.949-9.102-9.801c0-5.5,4.6-9.699,11.9-9.699c3.65,0,6.352,0.799,8.102,1.699l-1.5,4.951
			c-1.201-0.65-3.551-1.602-6.701-1.602c-3.9,0-5.6,2.102-5.6,4.051c0,2.6,1.949,3.801,6.449,5.551c5.852,2.199,8.701,5.15,8.701,10
			c0,5.4-4.1,10.102-12.801,10.102c-3.551,0-7.25-1-9.102-2.102L469.02,347.832z"/>
		<path fill="#585857" d="M495.119,320.83h6.15v28.553h13.852v5.15h-20.002V320.83z"/>
		<path fill="#585857" d="M547.721,337.332c0,11.301-6.852,17.75-16.152,17.75c-9.5,0-15.5-7.25-15.5-17.15
			c0-10.352,6.5-17.65,16-17.65C541.92,320.281,547.721,327.73,547.721,337.332z M522.568,337.832c0,6.85,3.451,12.301,9.352,12.301
			c5.949,0,9.299-5.5,9.299-12.551c0-6.352-3.148-12.352-9.299-12.352C525.818,325.23,522.568,330.88,522.568,337.832z"/>
		<path fill="#585857" d="M560.57,354.533l-10.902-33.703h6.701l4.6,15.301c1.301,4.25,2.4,8.201,3.301,12.301h0.1
			c0.9-4,2.102-8.1,3.451-12.201l4.9-15.4h6.551l-11.652,33.703H560.57z"/>
		<path fill="#585857" d="M586.92,344.982l-2.9,9.551h-6.35l10.801-33.703h7.85l10.951,33.703h-6.6l-3.051-9.551H586.92z
			 M596.57,340.332l-2.65-8.301c-0.648-2.051-1.199-4.35-1.699-6.301h-0.1c-0.5,1.951-1,4.301-1.602,6.301l-2.6,8.301H596.57z
			 M600.521,313.029l-6.25,6.002h-4.951l4.4-6.002H600.521z"/>
		<path fill="#585857" d="M622.168,347.832c2,1.15,5,2.15,8.15,2.15c3.951,0,6.15-1.85,6.15-4.6c0-2.551-1.699-4.051-6-5.602
			c-5.551-2-9.1-4.949-9.1-9.801c0-5.5,4.6-9.699,11.9-9.699c3.65,0,6.35,0.799,8.1,1.699l-1.5,4.951
			c-1.199-0.65-3.551-1.602-6.699-1.602c-3.9,0-5.602,2.102-5.602,4.051c0,2.6,1.951,3.801,6.451,5.551
			c5.85,2.199,8.699,5.15,8.699,10c0,5.4-4.1,10.102-12.801,10.102c-3.549,0-7.25-1-9.1-2.102L622.168,347.832z M629.918,318.929
			l-5.1-5.9h4.6l2.801,3.25h0.1l2.801-3.25h4.551l-5.102,5.9H629.918z"/>
		<path fill="#585857" d="M648.268,320.83h6.102v15.502h0.15c0.799-1.301,1.65-2.5,2.449-3.65l8.801-11.852h7.6l-11.6,14.352
			l12.35,19.352h-7.199l-9.551-15.451l-3,3.6v11.852h-6.102V320.83z"/>
		<path fill="#585857" d="M705.971,337.332c0,11.301-6.852,17.75-16.152,17.75c-9.5,0-15.5-7.25-15.5-17.15
			c0-10.352,6.5-17.65,16-17.65C700.17,320.281,705.971,327.73,705.971,337.332z M680.818,337.832c0,6.85,3.451,12.301,9.352,12.301
			c5.949,0,9.299-5.5,9.299-12.551c0-6.352-3.148-12.352-9.299-12.352C684.068,325.23,680.818,330.88,680.818,337.832z"/>
		<path fill="#585857" d="M711.268,320.83h6.15v28.553h13.852v5.15h-20.002V320.83z"/>
		<path fill="#585857" d="M742.869,344.982l-2.9,9.551h-6.352l10.801-33.703h7.852l10.951,33.703h-6.602l-3.051-9.551H742.869z
			 M752.52,340.332l-2.65-8.301c-0.65-2.051-1.201-4.35-1.701-6.301h-0.1c-0.5,1.951-1,4.301-1.6,6.301l-2.6,8.301H752.52z"/>
		<path fill="#585857" d="M778.117,347.832c2,1.15,5,2.15,8.15,2.15c3.951,0,6.15-1.85,6.15-4.6c0-2.551-1.699-4.051-6-5.602
			c-5.551-2-9.1-4.949-9.1-9.801c0-5.5,4.6-9.699,11.9-9.699c3.65,0,6.35,0.799,8.1,1.699l-1.5,4.951
			c-1.199-0.65-3.551-1.602-6.699-1.602c-3.9,0-5.602,2.102-5.602,4.051c0,2.6,1.951,3.801,6.451,5.551
			c5.85,2.199,8.699,5.15,8.699,10c0,5.4-4.1,10.102-12.801,10.102c-3.549,0-7.25-1-9.1-2.102L778.117,347.832z"/>
		<path fill="#585857" d="M810.668,325.98h-9.6v-5.15h25.451v5.15h-9.701v28.553h-6.15V325.98z"/>
		<path fill="#585857" d="M830.467,321.281c2.301-0.4,5.752-0.701,9.301-0.701c4.852,0,8.15,0.801,10.4,2.701
			c1.852,1.549,2.9,3.9,2.9,6.75c0,4.35-2.949,7.301-6.1,8.451v0.148c2.4,0.9,3.85,3.25,4.701,6.502
			c1.049,4.199,1.949,8.1,2.648,9.4h-6.35c-0.5-1-1.301-3.75-2.25-7.951c-0.949-4.4-2.551-5.801-6.051-5.9h-3.1v13.852h-6.102
			V321.281z M836.568,336.181h3.65c4.15,0,6.75-2.201,6.75-5.551c0-3.699-2.6-5.4-6.6-5.4c-1.951,0-3.201,0.15-3.801,0.301V336.181z
			"/>
		<path fill="#585857" d="M888.818,337.332c0,11.301-6.85,17.75-16.15,17.75c-9.5,0-15.502-7.25-15.502-17.15
			c0-10.352,6.502-17.65,16.002-17.65C883.018,320.281,888.818,327.73,888.818,337.332z M863.668,337.832
			c0,6.85,3.449,12.301,9.35,12.301c5.951,0,9.301-5.5,9.301-12.551c0-6.352-3.15-12.352-9.301-12.352
			C866.918,325.23,863.668,330.88,863.668,337.832z"/>
		<path fill="#585857" d="M900.818,320.83h6.15v21.852c0,9.301-4.502,12.4-11.201,12.4c-1.701,0-3.852-0.299-5.15-0.799l0.75-4.951
			c1,0.301,2.35,0.6,3.801,0.6c3.5,0,5.65-1.6,5.65-7.449V320.83z"/>
		<path fill="#585857" d="M913.717,354.533V320.83h7l8.701,14.451c2.25,3.75,4.199,7.65,5.75,11.301h0.1
			c-0.4-4.5-0.549-8.852-0.549-14V320.83h5.699v33.703h-6.35l-8.801-14.801c-2.15-3.701-4.4-7.852-6.051-11.652l-0.15,0.051
			c0.25,4.35,0.301,8.801,0.301,14.352v12.051H913.717z"/>
		<path fill="#585857" d="M958.566,313.029l-6.25,6.002h-4.949l4.4-6.002H958.566z M953.666,320.83v33.703h-6.15V320.83H953.666z"/>
		<path fill="#585857" d="M9.252,410.982l-2.9,9.551H0l10.801-33.703h7.852l10.951,33.703h-6.602l-3.051-9.551H9.252z
			 M18.902,406.332l-2.65-8.301c-0.65-2.049-1.201-4.35-1.701-6.301h-0.1c-0.5,1.951-1,4.301-1.6,6.301l-2.6,8.301H18.902z"/>
		<path fill="#585857" d="M63.5,405.582H50.799v9.9H65v5.051H44.648V386.83H64.25v5.051H50.799v8.701H63.5V405.582z"/>
		<path fill="#585857" d="M70.398,386.83h6.15v28.553H90.4v5.15H70.398V386.83z"/>
		<path fill="#585857" d="M113.9,405.582h-12.701v9.9H115.4v5.051H95.049V386.83h19.602v5.051h-13.451v8.701H113.9V405.582z"/>
		<path fill="#585857" d="M120.799,386.83h6.1v15.502h0.15c0.801-1.301,1.65-2.5,2.451-3.65l8.801-11.852h7.6l-11.602,14.352
			l12.352,19.352h-7.201l-9.551-15.451l-3,3.6v11.852h-6.1V386.83z"/>
		<path fill="#585857" d="M156.998,391.98h-9.6v-5.15h25.451v5.15h-9.701v28.553h-6.15V391.98z"/>
		<path fill="#585857" d="M176.797,387.281c2.301-0.4,5.752-0.701,9.301-0.701c4.852,0,8.15,0.801,10.4,2.701
			c1.852,1.551,2.9,3.9,2.9,6.75c0,4.35-2.949,7.301-6.1,8.451v0.15c2.4,0.898,3.85,3.25,4.701,6.5c1.049,4.199,1.949,8.1,2.648,9.4
			h-6.35c-0.5-1-1.301-3.75-2.25-7.951c-0.949-4.4-2.551-5.801-6.051-5.9h-3.1v13.852h-6.102V387.281z M182.898,402.181h3.65
			c4.15,0,6.75-2.199,6.75-5.551c0-3.699-2.6-5.4-6.6-5.4c-1.951,0-3.201,0.15-3.801,0.301V402.181z"/>
		<path fill="#585857" d="M235.148,403.332c0,11.301-6.85,17.75-16.15,17.75c-9.5,0-15.502-7.25-15.502-17.15
			c0-10.35,6.502-17.65,16.002-17.65C229.348,386.281,235.148,393.73,235.148,403.332z M209.998,403.832
			c0,6.85,3.449,12.301,9.35,12.301c5.951,0,9.301-5.5,9.301-12.551c0-6.35-3.15-12.352-9.301-12.352
			C213.248,391.23,209.998,396.88,209.998,403.832z"/>
		<path fill="#585857" d="M245.549,391.98h-9.602v-5.15h25.451v5.15h-9.699v28.553h-6.15V391.98z"/>
		<path fill="#585857" d="M284.199,405.582h-12.701v9.9h14.201v5.051h-20.352V386.83h19.602v5.051h-13.451v8.701h12.701V405.582z"/>
		<path fill="#585857" d="M315.25,419.533c-1.451,0.75-4.65,1.5-8.701,1.5c-10.701,0-17.201-6.701-17.201-16.951
			c0-11.102,7.701-17.801,18-17.801c4.051,0,6.951,0.85,8.201,1.5l-1.35,4.9c-1.6-0.701-3.801-1.301-6.602-1.301
			c-6.85,0-11.799,4.301-11.799,12.4c0,7.4,4.35,12.152,11.75,12.152c2.5,0,5.1-0.5,6.699-1.252L315.25,419.533z"/>
		<path fill="#585857" d="M326.646,386.83v13.502h14.252V386.83h6.15v33.703h-6.15v-14.852h-14.252v14.852h-6.15V386.83H326.646z"/>
		<path fill="#585857" d="M354.096,420.533V386.83h7.002l8.699,14.451c2.25,3.75,4.201,7.65,5.752,11.301h0.1
			c-0.4-4.5-0.551-8.85-0.551-14V386.83h5.701v33.703h-6.352l-8.801-14.801c-2.148-3.701-4.4-7.852-6.049-11.65l-0.15,0.049
			c0.25,4.352,0.299,8.801,0.299,14.352v12.051H354.096z"/>
		<path fill="#585857" d="M394.047,386.83v33.703h-6.15V386.83H394.047z"/>
		<path fill="#585857" d="M425.248,419.533c-1.451,0.75-4.65,1.5-8.701,1.5c-10.701,0-17.201-6.701-17.201-16.951
			c0-11.102,7.701-17.801,18-17.801c4.051,0,6.951,0.85,8.201,1.5l-1.35,4.9c-1.6-0.701-3.801-1.301-6.602-1.301
			c-6.85,0-11.799,4.301-11.799,12.4c0,7.4,4.35,12.152,11.75,12.152c2.5,0,5.1-0.5,6.699-1.252L425.248,419.533z"/>
		<path fill="#585857" d="M430.494,386.83h6.102v15.502h0.15c0.799-1.301,1.65-2.5,2.449-3.65l8.801-11.852h7.6l-11.6,14.352
			l12.35,19.352h-7.199l-9.551-15.451l-3,3.6v11.852h-6.102V386.83z"/>
		<path fill="#585857" d="M466.945,410.982l-2.9,9.551h-6.352l10.801-33.703h7.852l10.951,33.703h-6.602l-3.051-9.551H466.945z
			 M476.596,406.332l-2.65-8.301c-0.65-2.049-1.201-4.35-1.701-6.301h-0.1c-0.5,1.951-1,4.301-1.6,6.301l-2.6,8.301H476.596z
			 M480.545,379.031l-6.25,6h-4.949l4.398-6H480.545z"/>
		<path fill="#585857" d="M509.094,410.982l-2.9,9.551h-6.35l10.801-33.703h7.85l10.951,33.703h-6.6l-3.051-9.551H509.094z
			 M518.744,406.332l-2.65-8.301c-0.648-2.049-1.199-4.35-1.699-6.301h-0.1c-0.5,1.951-1,4.301-1.602,6.301l-2.6,8.301H518.744z"/>
		<path fill="#585857" d="M550.393,420.533l-10.9-33.703h6.701l4.6,15.301c1.301,4.252,2.4,8.201,3.301,12.301h0.1
			c0.9-4,2.1-8.1,3.449-12.199l4.9-15.402h6.551l-11.65,33.703H550.393z"/>
		<path fill="#585857" d="M580.393,420.533v-14.051l-10.65-19.652h7l4.051,8.65c1.15,2.502,2,4.4,2.9,6.701h0.1
			c0.85-2.15,1.801-4.25,2.949-6.701l4.051-8.65h6.951l-11.201,19.502v14.201H580.393z"/>
		<path fill="#585857" d="M600.242,413.832c2,1.15,5,2.15,8.15,2.15c3.951,0,6.15-1.85,6.15-4.6c0-2.551-1.699-4.051-6-5.602
			c-5.551-2-9.1-4.949-9.1-9.799c0-5.502,4.6-9.701,11.9-9.701c3.65,0,6.35,0.799,8.1,1.699l-1.5,4.951
			c-1.199-0.65-3.551-1.6-6.699-1.6c-3.9,0-5.602,2.1-5.602,4.049c0,2.602,1.951,3.801,6.451,5.551c5.85,2.201,8.699,5.15,8.699,10
			c0,5.4-4.1,10.102-12.801,10.102c-3.549,0-7.25-1-9.1-2.1L600.242,413.832z M607.992,384.931l-5.1-5.9h4.6l2.801,3.25h0.1
			l2.801-3.25h4.551l-5.102,5.9H607.992z"/>
		<path fill="#585857" d="M626.193,413.832c2,1.15,5,2.15,8.15,2.15c3.949,0,6.15-1.85,6.15-4.6c0-2.551-1.701-4.051-6-5.602
			c-5.551-2-9.102-4.949-9.102-9.799c0-5.502,4.6-9.701,11.9-9.701c3.65,0,6.352,0.799,8.102,1.699l-1.5,4.951
			c-1.201-0.65-3.551-1.6-6.701-1.6c-3.9,0-5.6,2.1-5.6,4.049c0,2.602,1.949,3.801,6.449,5.551c5.852,2.201,8.701,5.15,8.701,10
			c0,5.4-4.1,10.102-12.801,10.102c-3.551,0-7.25-1-9.102-2.1L626.193,413.832z M633.943,384.931l-5.1-5.9h4.6l2.801,3.25h0.1
			l2.799-3.25h4.551l-5.1,5.9H633.943z"/>
		<path fill="#585857" d="M663.344,379.031l-6.25,6h-4.951l4.4-6H663.344z M658.443,386.83v33.703h-6.15V386.83H658.443z"/>
		<path fill="#585857" d="M705.744,403.332c0,11.301-6.852,17.75-16.152,17.75c-9.5,0-15.5-7.25-15.5-17.15
			c0-10.35,6.5-17.65,16-17.65C699.943,386.281,705.744,393.73,705.744,403.332z M680.592,403.832c0,6.85,3.451,12.301,9.352,12.301
			c5.949,0,9.299-5.5,9.299-12.551c0-6.35-3.148-12.352-9.299-12.352C683.842,391.23,680.592,396.88,680.592,403.832z"/>
		<path fill="#585857" d="M711.041,387.281c2.701-0.451,6.15-0.701,9.801-0.701c6.301,0,10.652,1.301,13.752,3.9
			c3.25,2.65,5.25,6.65,5.25,12.402c0,6-2.051,10.5-5.25,13.4c-3.352,3.049-8.701,4.6-15.252,4.6c-3.6,0-6.299-0.199-8.301-0.449
			V387.281z M717.191,415.832c0.852,0.15,2.15,0.15,3.4,0.15c8.002,0.051,12.752-4.35,12.752-12.9
			c0.049-7.451-4.25-11.701-11.951-11.701c-1.949,0-3.35,0.15-4.201,0.35V415.832z"/>
		<path fill="#585857" d="M745.191,387.281c1.951-0.4,5.502-0.701,8.951-0.701c4.551,0,7.352,0.551,9.65,2.15
			c2.102,1.25,3.5,3.451,3.5,6.301c0,3.1-1.949,5.951-5.6,7.301v0.1c3.551,0.9,6.801,3.701,6.801,8.352c0,3-1.301,5.35-3.25,6.949
			c-2.4,2.1-6.352,3.15-12.502,3.15c-3.4,0-6-0.25-7.551-0.449V387.281z M751.293,400.582h3.15c4.25,0,6.65-2,6.65-4.852
			c0-3.148-2.4-4.6-6.301-4.6c-1.801,0-2.85,0.1-3.5,0.25V400.582z M751.293,416.082c0.799,0.102,1.85,0.15,3.25,0.15
			c3.949,0,7.451-1.5,7.451-5.65c0-3.9-3.4-5.5-7.65-5.5h-3.051V416.082z"/>
		<path fill="#585857" d="M803.895,403.332c0,11.301-6.852,17.75-16.152,17.75c-9.5,0-15.5-7.25-15.5-17.15
			c0-10.35,6.5-17.65,16-17.65C798.094,386.281,803.895,393.73,803.895,403.332z M778.742,403.832c0,6.85,3.451,12.301,9.352,12.301
			c5.949,0,9.299-5.5,9.299-12.551c0-6.35-3.148-12.352-9.299-12.352C781.992,391.23,778.742,396.88,778.742,403.832z"/>
		<path fill="#585857" d="M809.191,387.281c2.301-0.4,5.752-0.701,9.301-0.701c4.852,0,8.15,0.801,10.4,2.701
			c1.852,1.551,2.9,3.9,2.9,6.75c0,4.35-2.949,7.301-6.1,8.451v0.15c2.4,0.898,3.85,3.25,4.701,6.5c1.049,4.199,1.949,8.1,2.648,9.4
			h-6.35c-0.5-1-1.301-3.75-2.25-7.951c-0.949-4.4-2.551-5.801-6.051-5.9h-3.1v13.852h-6.102V387.281z M815.293,402.181h3.65
			c4.15,0,6.75-2.199,6.75-5.551c0-3.699-2.6-5.4-6.6-5.4c-1.951,0-3.201,0.15-3.801,0.301V402.181z"/>
		<path fill="#585857" d="M837.641,420.533V386.83h7.002l8.699,14.451c2.25,3.75,4.201,7.65,5.752,11.301h0.1
			c-0.4-4.5-0.551-8.85-0.551-14V386.83h5.701v33.703h-6.352l-8.801-14.801c-2.148-3.701-4.4-7.852-6.049-11.65l-0.15,0.049
			c0.25,4.352,0.299,8.801,0.299,14.352v12.051H837.641z"/>
		<path fill="#585857" d="M878.191,410.982l-2.9,9.551h-6.35l10.801-33.703h7.85l10.951,33.703h-6.6l-3.051-9.551H878.191z
			 M887.842,406.332l-2.65-8.301c-0.648-2.049-1.199-4.35-1.699-6.301h-0.1c-0.5,1.951-1,4.301-1.602,6.301l-2.6,8.301H887.842z
			 M891.793,379.031l-6.25,6h-4.951l4.4-6H891.793z"/>
		<path fill="#585857" d="M913.441,413.832c2,1.15,5,2.15,8.15,2.15c3.949,0,6.15-1.85,6.15-4.6c0-2.551-1.701-4.051-6-5.602
			c-5.551-2-9.102-4.949-9.102-9.799c0-5.502,4.6-9.701,11.9-9.701c3.65,0,6.352,0.799,8.102,1.699l-1.5,4.951
			c-1.201-0.65-3.551-1.6-6.701-1.6c-3.9,0-5.6,2.1-5.6,4.049c0,2.602,1.949,3.801,6.449,5.551c5.852,2.201,8.701,5.15,8.701,10
			c0,5.4-4.1,10.102-12.801,10.102c-3.551,0-7.25-1-9.102-2.1L913.441,413.832z M921.191,384.931l-5.1-5.9h4.6l2.801,3.25h0.1
			l2.799-3.25h4.551l-5.1,5.9H921.191z"/>
		<path fill="#585857" d="M939.541,386.83h6.1v15.502h0.15c0.801-1.301,1.65-2.5,2.451-3.65l8.801-11.852h7.6l-11.602,14.352
			l12.352,19.352h-7.201l-9.551-15.451l-3,3.6v11.852h-6.1V386.83z"/>
		<path fill="#585857" d="M997.244,403.332c0,11.301-6.852,17.75-16.152,17.75c-9.5,0-15.5-7.25-15.5-17.15
			c0-10.35,6.5-17.65,16-17.65C991.443,386.281,997.244,393.73,997.244,403.332z M972.092,403.832c0,6.85,3.451,12.301,9.352,12.301
			c5.949,0,9.299-5.5,9.299-12.551c0-6.35-3.148-12.352-9.299-12.352C975.342,391.23,972.092,396.88,972.092,403.832z"/>
		<path fill="#585857" d="M1002.541,386.83h6.15v28.553h13.852v5.15h-20.002V386.83z"/>
		<path fill="#585857" d="M1034.141,410.982l-2.9,9.551h-6.35l10.801-33.703h7.85l10.951,33.703h-6.6l-3.051-9.551H1034.141z
			 M1043.791,406.332l-2.65-8.301c-0.648-2.049-1.199-4.35-1.699-6.301h-0.1c-0.5,1.951-1,4.301-1.602,6.301l-2.6,8.301H1043.791z"
			/>
		<path fill="#585857" d="M1056.041,426.583c1.35-3.801,2.699-9.051,3.35-13.201l6.449-0.5c-1.398,4.699-3.648,10.1-5.6,13.301
			L1056.041,426.583z"/>
		<path fill="#585857" d="M196.373,452.83h6.15v28.553h13.852v5.15h-20.002V452.83z"/>
		<path fill="#585857" d="M227.172,452.83v33.703h-6.15V452.83H227.172z"/>
		<path fill="#585857" d="M234.221,453.281c1.951-0.4,5.502-0.701,8.951-0.701c4.551,0,7.352,0.551,9.65,2.15
			c2.102,1.25,3.5,3.451,3.5,6.301c0,3.1-1.949,5.951-5.6,7.301v0.1c3.551,0.9,6.801,3.701,6.801,8.35
			c0,3.002-1.301,5.352-3.25,6.951c-2.4,2.1-6.352,3.15-12.502,3.15c-3.4,0-6-0.25-7.551-0.449V453.281z M240.322,466.582h3.15
			c4.25,0,6.65-2,6.65-4.852c0-3.15-2.4-4.6-6.301-4.6c-1.801,0-2.85,0.1-3.5,0.25V466.582z M240.322,482.082
			c0.799,0.1,1.85,0.15,3.25,0.15c3.949,0,7.451-1.5,7.451-5.65c0-3.9-3.4-5.5-7.65-5.5h-3.051V482.082z"/>
		<path fill="#585857" d="M281.873,471.582h-12.701v9.9h14.201v5.051h-20.352V452.83h19.602v5.051h-13.451v8.701h12.701V471.582z"/>
		<path fill="#585857" d="M288.771,453.281c2.301-0.4,5.75-0.701,9.301-0.701c4.85,0,8.15,0.801,10.4,2.701
			c1.85,1.549,2.9,3.9,2.9,6.75c0,4.35-2.951,7.301-6.102,8.451v0.148c2.4,0.9,3.852,3.252,4.701,6.502
			c1.051,4.199,1.949,8.1,2.65,9.4h-6.35c-0.502-1-1.301-3.75-2.252-7.951c-0.949-4.4-2.549-5.801-6.049-5.9h-3.102v13.852h-6.1
			V453.281z M294.871,468.181h3.65c4.15,0,6.75-2.199,6.75-5.551c0-3.699-2.6-5.4-6.6-5.4c-1.949,0-3.199,0.15-3.801,0.301V468.181z
			"/>
		<path fill="#585857" d="M336.072,471.582h-12.701v9.9h14.201v5.051h-20.352V452.83h19.602v5.051h-13.451v8.701h12.701V471.582z"/>
		<path fill="#585857" d="M367.123,485.533c-1.451,0.75-4.65,1.5-8.701,1.5c-10.701,0-17.201-6.701-17.201-16.951
			c0-11.102,7.701-17.801,18-17.801c4.051,0,6.951,0.85,8.201,1.5l-1.35,4.9c-1.6-0.701-3.801-1.301-6.602-1.301
			c-6.85,0-11.799,4.301-11.799,12.4c0,7.4,4.35,12.15,11.75,12.15c2.5,0,5.1-0.5,6.699-1.25L367.123,485.533z"/>
		<path fill="#585857" d="M390.971,459.582h-0.1l-5.951,3l-1.051-4.65l7.9-3.9h5.15v32.502h-5.949V459.582z"/>
		<path fill="#585857" d="M406.369,492.583c1.35-3.801,2.701-9.051,3.35-13.201l6.451-0.5c-1.4,4.699-3.65,10.1-5.6,13.301
			L406.369,492.583z"/>
		<path fill="#585857" d="M460.121,472.781c-0.201-4.35-0.451-9.6-0.4-14.15h-0.15c-1.1,4.1-2.5,8.65-4,12.9l-4.9,14.602h-4.75
			l-4.5-14.4c-1.301-4.301-2.5-8.9-3.4-13.102h-0.1c-0.15,4.4-0.352,9.75-0.602,14.352l-0.75,13.551h-5.75l2.25-33.703h8.102
			l4.4,13.551c1.199,3.951,2.25,7.951,3.1,11.701h0.15c0.9-3.65,2.049-7.801,3.35-11.75l4.65-13.502h8l1.951,33.703h-6
			L460.121,472.781z"/>
		<path fill="#585857" d="M479.469,476.982l-2.9,9.551h-6.35l10.801-33.703h7.85l10.951,33.703h-6.6l-3.051-9.551H479.469z
			 M489.119,472.332l-2.65-8.301c-0.648-2.051-1.199-4.35-1.699-6.301h-0.1c-0.5,1.951-1,4.301-1.602,6.301l-2.6,8.301H489.119z"/>
		<path fill="#585857" d="M504.367,479.832c2,1.15,5,2.15,8.15,2.15c3.951,0,6.15-1.85,6.15-4.6c0-2.551-1.699-4.051-6-5.602
			c-5.551-2-9.1-4.949-9.1-9.801c0-5.5,4.6-9.699,11.9-9.699c3.65,0,6.35,0.799,8.1,1.699l-1.5,4.951
			c-1.199-0.65-3.551-1.602-6.699-1.602c-3.9,0-5.602,2.102-5.602,4.051c0,2.6,1.951,3.801,6.451,5.551
			c5.85,2.199,8.699,5.15,8.699,10c0,5.4-4.1,10.102-12.801,10.102c-3.549,0-7.25-1-9.1-2.1L504.367,479.832z"/>
		<path fill="#585857" d="M537.219,476.982l-2.9,9.551h-6.352l10.801-33.703h7.852l10.951,33.703h-6.602l-3.051-9.551H537.219z
			 M546.869,472.332l-2.65-8.301c-0.65-2.051-1.201-4.35-1.701-6.301h-0.1c-0.5,1.951-1,4.301-1.6,6.301l-2.6,8.301H546.869z"/>
		<path fill="#585857" d="M562.268,453.281c2.301-0.4,5.75-0.701,9.301-0.701c4.85,0,8.15,0.801,10.4,2.701
			c1.85,1.549,2.9,3.9,2.9,6.75c0,4.35-2.951,7.301-6.102,8.451v0.148c2.4,0.9,3.852,3.252,4.701,6.502
			c1.051,4.199,1.949,8.1,2.65,9.4h-6.35c-0.502-1-1.301-3.75-2.252-7.951c-0.949-4.4-2.549-5.801-6.049-5.9h-3.102v13.852h-6.1
			V453.281z M568.367,468.181h3.65c4.15,0,6.75-2.199,6.75-5.551c0-3.699-2.6-5.4-6.6-5.4c-1.949,0-3.199,0.15-3.801,0.301V468.181z
			"/>
		<path fill="#585857" d="M597.617,486.533v-14.051l-10.65-19.652h7l4.051,8.65c1.15,2.5,2,4.4,2.9,6.701h0.1
			c0.85-2.15,1.801-4.25,2.949-6.701l4.051-8.65h6.951l-11.201,19.502v14.201H597.617z"/>
		<path fill="#585857" d="M618.066,452.83h6.102v15.502h0.15c0.799-1.301,1.65-2.5,2.449-3.65l8.801-11.852h7.6l-11.6,14.352
			l12.35,19.352h-7.199l-9.551-15.451l-3,3.6v11.852h-6.102V452.83z"/>
		<path fill="#585857" d="M675.77,469.332c0,11.301-6.85,17.75-16.15,17.75c-9.5,0-15.502-7.25-15.502-17.15
			c0-10.35,6.502-17.65,16.002-17.65C669.969,452.281,675.77,459.73,675.77,469.332z M650.619,469.832
			c0,6.85,3.449,12.301,9.35,12.301c5.951,0,9.301-5.5,9.301-12.551c0-6.352-3.15-12.352-9.301-12.352
			C653.869,457.23,650.619,462.88,650.619,469.832z"/>
		<path fill="#585857" d="M688.619,486.533l-10.9-33.703h6.701l4.6,15.301c1.301,4.252,2.4,8.201,3.301,12.301h0.1
			c0.9-4,2.1-8.1,3.449-12.199l4.9-15.402h6.551l-11.65,33.703H688.619z"/>
		<path fill="#585857" d="M714.969,476.982l-2.9,9.551h-6.35l10.801-33.703h7.85l10.951,33.703h-6.6l-3.051-9.551H714.969z
			 M724.619,472.332l-2.65-8.301c-0.648-2.051-1.199-4.35-1.699-6.301h-0.1c-0.5,1.951-1,4.301-1.602,6.301l-2.6,8.301H724.619z"/>
		<path fill="#585857" d="M750.217,480.181c1.25,0.75,4.301,2,7.4,2c4.701,0,6.602-2.648,6.551-5.199c0-3.85-3.6-5.5-7.35-5.5
			h-2.852v-4.5h2.75c2.852,0,6.451-1.301,6.451-4.551c0-2.201-1.65-4.051-5.201-4.051c-2.648,0-5.299,1.15-6.65,2.051l-1.398-4.451
			c1.85-1.299,5.449-2.5,9.35-2.5c6.701,0,10.15,3.701,10.15,7.951c0,3.4-2,6.199-6,7.6v0.1c3.949,0.701,7.15,3.701,7.15,8.102
			c0,5.5-4.6,9.85-12.65,9.85c-3.951,0-7.352-1.1-9.102-2.25L750.217,480.181z"/>
		<path fill="#585857" d="M774.018,492.583c1.35-3.801,2.699-9.051,3.35-13.201l6.449-0.5c-1.398,4.699-3.648,10.1-5.6,13.301
			L774.018,492.583z"/>
		<path fill="#585857" d="M799.316,453.281c2.199-0.4,5.25-0.701,9.4-0.701c4.5,0,7.801,0.951,9.951,2.75
			c2,1.65,3.299,4.301,3.299,7.451c0,3.201-1,5.85-2.898,7.65c-2.451,2.451-6.301,3.6-10.652,3.6c-1.148,0-2.199-0.049-3-0.199
			v12.701h-6.1V453.281z M805.416,468.982c0.75,0.199,1.75,0.25,3,0.25c4.602,0,7.4-2.25,7.4-6.201c0-3.75-2.6-5.75-6.85-5.75
			c-1.699,0-2.9,0.15-3.551,0.299V468.982z"/>
		<path fill="#585857" d="M819.166,483.132c0-2.301,1.6-3.951,3.801-3.951c2.25,0,3.799,1.602,3.799,3.951
			c0,2.25-1.5,3.949-3.799,3.949C820.717,487.082,819.166,485.382,819.166,483.132z"/>
		<path fill="#585857" d="M861.867,469.332c0,11.301-6.85,17.75-16.15,17.75c-9.5,0-15.502-7.25-15.502-17.15
			c0-10.35,6.502-17.65,16.002-17.65C856.066,452.281,861.867,459.73,861.867,469.332z M836.717,469.832
			c0,6.85,3.449,12.301,9.35,12.301c5.951,0,9.301-5.5,9.301-12.551c0-6.352-3.15-12.352-9.301-12.352
			C839.967,457.23,836.717,462.88,836.717,469.832z"/>
		<path fill="#585857" d="M864.316,483.132c0-2.301,1.6-3.951,3.801-3.951c2.25,0,3.799,1.602,3.799,3.951
			c0,2.25-1.5,3.949-3.799,3.949C865.867,487.082,864.316,485.382,864.316,483.132z"/>
	</g>
</g>
</svg>
